# xmcd
#
# Track frame offsets: 
#        150
#        17034
#        36981
#        56049
#        79614
#        95773
#        111519
#        133827
#        151200
#        166282
#        182398
#
# Disc length: 2644 seconds
#
# Revision: 1
# Processed by: cddbd v1.5.2PL0 Copyright (c) Steve Scherf et al.
# Submitted via: ExactAudioCopyFreeDBPlugin 1.0
#
DISCID=8d0a520b
DTITLE=Enya - Dark Sky Island
DYEAR=2015
DGENRE=New Age
TTITLE0=The Humming...
TTITLE1=So I Could Find My Way
TTITLE2=Even In the Shadows
TTITLE3=The Forge of the Angels
TTITLE4=Echoes In Rain
TTITLE5=I Could Never Say Goodbye
TTITLE6=Dark Sky Island
TTITLE7=Sancta Maria
TTITLE8=Astra et Luna
TTITLE9=The Loxian Gates
TTITLE10=Diamonds on the Water
EXTD=YEAR: 2015
EXTT0=
EXTT1=
EXTT2=
EXTT3=
EXTT4=
EXTT5=
EXTT6=
EXTT7=
EXTT8=
EXTT9=
EXTT10=
PLAYORDER=
